{
  "accessors": [
    {
      "bufferView": 2,
      "componentType": 5126,
      "count": 276,
      "max": [
        2.431633472442627,
        1.9261269569396973,
        5.807311058044434
      ],
      "min": [
        -2.431631326675415,
        -1.9261226654052734,
        -3.596926689147949
      ],
      "type": "VEC3"
    },
    {
      "bufferView": 2,
      "byteOffset": 3312,
      "componentType": 5126,
      "count": 276,
      "max": [
        0.9995629787445068,
        0.9995927214622498,
        1.0
      ],
      "min": [
        -0.9995877146720886,
        -0.9997062087059021,
        -0.9861255884170532
      ],
      "type": "VEC3"
    },
    {
      "bufferView": 1,
      "componentType": 5126,
      "count": 276,
      "max": [
        0.9852914810180664,
        0.9894788265228271
      ],
      "min": [
        0.012597108259797096,
        0.011102557182312012
      ],
      "type": "VEC2"
    },
    {
      "bufferView": 0,
      "componentType": 5125,
      "count": 546,
      "type": "SCALAR"
    }
  ],
  "asset": {
    "extras": {
      "author": "rudolfs (https://sketchfab.com/rudolfs)",
      "license": "CC-BY-4.0 (http://creativecommons.org/licenses/by/4.0/)",
      "source": "https://sketchfab.com/3d-models/potion-5079014d2c8e4f879790e4b88142c9a0",
      "title": "Potion"
    },
    "generator": "Sketchfab-13.45.0",
    "version": "2.0"
  },
  "bufferViews": [
    {
      "buffer": 0,
      "byteLength": 2184,
      "name": "floatBufferViews",
      "target": 34963
    },
    {
      "buffer": 0,
      "byteLength": 2208,
      "byteOffset": 2184,
      "byteStride": 8,
      "name": "floatBufferViews",
      "target": 34962
    },
    {
      "buffer": 0,
      "byteLength": 6624,
      "byteOffset": 4392,
      "byteStride": 12,
      "name": "floatBufferViews",
      "target": 34962
    }
  ],
  "buffers": [
    {
      "byteLength": 11016,
      "uri": "scene.bin"
    }
  ],
  "extensionsRequired": [
    "KHR_materials_pbrSpecularGlossiness"
  ],
  "extensionsUsed": [
    "KHR_materials_pbrSpecularGlossiness"
  ],
  "images": [
    {
      "uri": "textures/Material_specularGlossiness.png"
    },
    {
      "uri": "textures/Material_emissive.png"
    }
  ],
  "materials": [
    {
      "doubleSided": true,
      "emissiveFactor": [
        1.0,
        1.0,
        1.0
      ],
      "emissiveTexture": {
        "index": 1
      },
      "extensions": {
        "KHR_materials_pbrSpecularGlossiness": {
          "diffuseFactor": [
            0.0,
            0.0,
            0.0,
            1.0
          ],
          "glossinessFactor": 0.0,
          "specularFactor": [
            1.0,
            1.0,
            1.0
          ],
          "specularGlossinessTexture": {
            "index": 0
          }
        }
      },
      "name": "Material"
    }
  ],
  "meshes": [
    {
      "name": "Cube_Material_0",
      "primitives": [
        {
          "attributes": {
            "NORMAL": 1,
            "POSITION": 0,
            "TEXCOORD_0": 2
          },
          "indices": 3,
          "material": 0,
          "mode": 4
        }
      ]
    }
  ],
  "nodes": [
    {
      "children": [
        1
      ],
      "matrix": [
        1.0,
        0.0,
        0.0,
        0.0,
        0.0,
        2.220446049250313e-16,
        -1.0,
        0.0,
        0.0,
        1.0,
        2.220446049250313e-16,
        0.0,
        0.0,
        0.0,
        0.0,
        1.0
      ],
      "name": "Sketchfab_model"
    },
    {
      "children": [
        2
      ],
      "matrix": [
        0.009999999776482582,
        0.0,
        0.0,
        0.0,
        0.0,
        0.0,
        0.009999999776482582,
        0.0,
        0.0,
        -0.009999999776482582,
        0.0,
        0.0,
        0.0,
        0.0,
        0.0,
        1.0
      ],
      "name": "317d2d8ecae74dc19ba54ba30461c694.fbx"
    },
    {
      "children": [
        3
      ],
      "name": "RootNode"
    },
    {
      "children": [
        4
      ],
      "matrix": [
        100.0,
        0.0,
        0.0,
        0.0,
        0.0,
        -4.371139006309477e-06,
        -99.9999999999999,
        0.0,
        0.0,
        99.9999999999999,
        -4.371139006309477e-06,
        0.0,
        0.0,
        0.0,
        0.0,
        1.0
      ],
      "name": "Cube"
    },
    {
      "mesh": 0,
      "name": "Cube_Material_0"
    }
  ],
  "samplers": [
    {
      "magFilter": 9729,
      "minFilter": 9987,
      "wrapS": 10497,
      "wrapT": 10497
    }
  ],
  "scene": 0,
  "scenes": [
    {
      "name": "Sketchfab_Scene",
      "nodes": [
        0
      ]
    }
  ],
  "textures": [
    {
      "sampler": 0,
      "source": 0
    },
    {
      "sampler": 0,
      "source": 1
    }
  ]
}
